# xmcd
#
# Track frame offsets: 
#        213
#        14361
#        28731
#        51228
#        66880
#        82575
#        92263
#        111010
#        127275
#        135116
#        144914
#        155095
#        163329
#        173681
#        200733
#        224294
#        240044
#        255652
#
# Disc length: 3579 seconds
#
# Revision: 3
# Processed by: cddbd v1.5.2PL0 Copyright (c) Steve Scherf et al.
# Submitted via: ExactAudioCopy v0.95b4
#
DISCID=ec0df912
DTITLE=Lead Belly - Last Sessions [CD2]
DYEAR=1949
DGENRE=Blues
TTITLE0=New Iberia
TTITLE1=Dancing With Tears In My Eyes
TTITLE2=John Henry
TTITLE3=Salty Dog
TTITLE4=National Defense Blues
TTITLE5=Easy, Mr. Tom
TTITLE6=Relax Your Mind
TTITLE7=Bottle Up And Go
TTITLE8=Polly Wolly Wee
TTITLE9=Pig Latin Boogie (Second Version)
TTITLE10=Hawaiian Song
TTITLE11=Drinkin' Lum Y A Alla
TTITLE12=The Grey Goose
TTITLE13=Silver City Bound
TTITLE14=The Titanic
TTITLE15=Death Letter Blues
TTITLE16=Mary Don't You Weep
TTITLE17=He Never Said A Mumblin' Word
EXTD=YEAR: 1994
EXTT0=
EXTT1=
EXTT2=
EXTT3=
EXTT4=
EXTT5=
EXTT6=
EXTT7=
EXTT8=
EXTT9=
EXTT10=
EXTT11=
EXTT12=
EXTT13=
EXTT14=
EXTT15=
EXTT16=
EXTT17=
PLAYORDER=
